<mxfile host="app.diagrams.net" modified="2020-12-25T02:19:45.069Z" agent="5.0 (Macintosh; Intel Mac OS X 10_14_6) AppleWebKit/537.36 (KHTML, like Gecko) Chrome/87.0.4280.88 Safari/537.36" etag="Vj9ioLga4r58eratgjSl" version="14.1.1" type="github">
  <diagram id="mg6_ln2mncLC90OhMLaE" name="Page-1">
    <mxGraphModel dx="1639" dy="912" grid="1" gridSize="10" guides="1" tooltips="1" connect="1" arrows="1" fold="1" page="1" pageScale="1" pageWidth="827" pageHeight="1169" math="0" shadow="0">
      <root>
        <mxCell id="0" />
        <mxCell id="1" parent="0" />
        <mxCell id="2LGqgcCa6hglrMfz8FRz-4" value="" style="edgeStyle=orthogonalEdgeStyle;rounded=0;orthogonalLoop=1;jettySize=auto;html=1;" edge="1" parent="1" source="2LGqgcCa6hglrMfz8FRz-1" target="2LGqgcCa6hglrMfz8FRz-3">
          <mxGeometry relative="1" as="geometry" />
        </mxCell>
        <mxCell id="2LGqgcCa6hglrMfz8FRz-25" style="edgeStyle=none;rounded=0;orthogonalLoop=1;jettySize=auto;html=1;entryX=0;entryY=0.5;entryDx=0;entryDy=0;dashed=1;" edge="1" parent="1" source="2LGqgcCa6hglrMfz8FRz-1" target="2LGqgcCa6hglrMfz8FRz-12">
          <mxGeometry relative="1" as="geometry" />
        </mxCell>
        <mxCell id="2LGqgcCa6hglrMfz8FRz-1" value="&lt;span style=&quot;color: rgb(51 , 51 , 51) ; font-family: &amp;#34;roboto&amp;#34; , &amp;#34;helvetica neue&amp;#34; , &amp;#34;helvetica&amp;#34; , &amp;#34;tahoma&amp;#34; , &amp;#34;arial&amp;#34; , &amp;#34;pingfang sc&amp;#34; , &amp;#34;microsoft yahei&amp;#34; ; text-align: left ; background-color: rgb(255 , 255 , 255)&quot;&gt;配置应用信息&lt;/span&gt;" style="rounded=0;whiteSpace=wrap;html=1;" vertex="1" parent="1">
          <mxGeometry x="310" y="110" width="120" height="60" as="geometry" />
        </mxCell>
        <mxCell id="2LGqgcCa6hglrMfz8FRz-6" value="" style="edgeStyle=orthogonalEdgeStyle;rounded=0;orthogonalLoop=1;jettySize=auto;html=1;" edge="1" parent="1" source="2LGqgcCa6hglrMfz8FRz-3" target="2LGqgcCa6hglrMfz8FRz-5">
          <mxGeometry relative="1" as="geometry" />
        </mxCell>
        <mxCell id="2LGqgcCa6hglrMfz8FRz-23" style="edgeStyle=none;rounded=0;orthogonalLoop=1;jettySize=auto;html=1;entryX=0;entryY=0.5;entryDx=0;entryDy=0;dashed=1;" edge="1" parent="1" source="2LGqgcCa6hglrMfz8FRz-3" target="2LGqgcCa6hglrMfz8FRz-16">
          <mxGeometry relative="1" as="geometry" />
        </mxCell>
        <mxCell id="2LGqgcCa6hglrMfz8FRz-3" value="&lt;span style=&quot;color: rgb(102 , 102 , 102) ; font-family: &amp;#34;roboto&amp;#34; , &amp;#34;helvetica neue&amp;#34; , &amp;#34;helvetica&amp;#34; , &amp;#34;tahoma&amp;#34; , &amp;#34;arial&amp;#34; , &amp;#34;pingfang sc&amp;#34; , &amp;#34;microsoft yahei&amp;#34; ; text-align: left ; background-color: rgb(255 , 255 , 255)&quot;&gt;配置Schema信息&lt;/span&gt;" style="rounded=0;whiteSpace=wrap;html=1;" vertex="1" parent="1">
          <mxGeometry x="310" y="250" width="120" height="60" as="geometry" />
        </mxCell>
        <mxCell id="2LGqgcCa6hglrMfz8FRz-8" value="" style="edgeStyle=orthogonalEdgeStyle;rounded=0;orthogonalLoop=1;jettySize=auto;html=1;" edge="1" parent="1" source="2LGqgcCa6hglrMfz8FRz-5" target="2LGqgcCa6hglrMfz8FRz-7">
          <mxGeometry relative="1" as="geometry" />
        </mxCell>
        <mxCell id="2LGqgcCa6hglrMfz8FRz-21" style="edgeStyle=none;rounded=0;orthogonalLoop=1;jettySize=auto;html=1;entryX=0;entryY=0.5;entryDx=0;entryDy=0;dashed=1;" edge="1" parent="1" source="2LGqgcCa6hglrMfz8FRz-5" target="2LGqgcCa6hglrMfz8FRz-14">
          <mxGeometry relative="1" as="geometry" />
        </mxCell>
        <mxCell id="2LGqgcCa6hglrMfz8FRz-5" value="&lt;span style=&quot;color: rgb(102 , 102 , 102) ; font-family: &amp;#34;roboto&amp;#34; , &amp;#34;helvetica neue&amp;#34; , &amp;#34;helvetica&amp;#34; , &amp;#34;tahoma&amp;#34; , &amp;#34;arial&amp;#34; , &amp;#34;pingfang sc&amp;#34; , &amp;#34;microsoft yahei&amp;#34; ; text-align: left ; background-color: rgb(255 , 255 , 255)&quot;&gt;配置增量信息&lt;/span&gt;" style="rounded=0;whiteSpace=wrap;html=1;" vertex="1" parent="1">
          <mxGeometry x="310" y="390" width="120" height="60" as="geometry" />
        </mxCell>
        <mxCell id="2LGqgcCa6hglrMfz8FRz-10" value="" style="edgeStyle=orthogonalEdgeStyle;rounded=0;orthogonalLoop=1;jettySize=auto;html=1;" edge="1" parent="1" source="2LGqgcCa6hglrMfz8FRz-7" target="2LGqgcCa6hglrMfz8FRz-9">
          <mxGeometry relative="1" as="geometry" />
        </mxCell>
        <mxCell id="2LGqgcCa6hglrMfz8FRz-22" style="edgeStyle=none;rounded=0;orthogonalLoop=1;jettySize=auto;html=1;entryX=0;entryY=0.5;entryDx=0;entryDy=0;dashed=1;" edge="1" parent="1" source="2LGqgcCa6hglrMfz8FRz-7" target="2LGqgcCa6hglrMfz8FRz-14">
          <mxGeometry relative="1" as="geometry" />
        </mxCell>
        <mxCell id="2LGqgcCa6hglrMfz8FRz-7" value="&lt;span style=&quot;color: rgb(102 , 102 , 102) ; font-family: &amp;#34;roboto&amp;#34; , &amp;#34;helvetica neue&amp;#34; , &amp;#34;helvetica&amp;#34; , &amp;#34;tahoma&amp;#34; , &amp;#34;arial&amp;#34; , &amp;#34;pingfang sc&amp;#34; , &amp;#34;microsoft yahei&amp;#34; ; text-align: left ; background-color: rgb(255 , 255 , 255)&quot;&gt;配置全量信息&lt;/span&gt;" style="rounded=0;whiteSpace=wrap;html=1;" vertex="1" parent="1">
          <mxGeometry x="310" y="530" width="120" height="60" as="geometry" />
        </mxCell>
        <mxCell id="2LGqgcCa6hglrMfz8FRz-24" style="edgeStyle=none;rounded=0;orthogonalLoop=1;jettySize=auto;html=1;entryX=0;entryY=0.5;entryDx=0;entryDy=0;dashed=1;" edge="1" parent="1" source="2LGqgcCa6hglrMfz8FRz-9" target="2LGqgcCa6hglrMfz8FRz-18">
          <mxGeometry relative="1" as="geometry">
            <mxPoint x="550" y="560" as="targetPoint" />
          </mxGeometry>
        </mxCell>
        <mxCell id="2LGqgcCa6hglrMfz8FRz-9" value="&lt;span style=&quot;color: rgb(102 , 102 , 102) ; font-family: &amp;#34;roboto&amp;#34; , &amp;#34;helvetica neue&amp;#34; , &amp;#34;helvetica&amp;#34; , &amp;#34;tahoma&amp;#34; , &amp;#34;arial&amp;#34; , &amp;#34;pingfang sc&amp;#34; , &amp;#34;microsoft yahei&amp;#34; ; text-align: left ; background-color: rgb(255 , 255 , 255)&quot;&gt;配置监控信息&lt;/span&gt;" style="rounded=0;whiteSpace=wrap;html=1;" vertex="1" parent="1">
          <mxGeometry x="310" y="670" width="120" height="60" as="geometry" />
        </mxCell>
        <mxCell id="2LGqgcCa6hglrMfz8FRz-11" value="" style="edgeStyle=orthogonalEdgeStyle;rounded=0;orthogonalLoop=1;jettySize=auto;html=1;" edge="1" parent="1" source="2LGqgcCa6hglrMfz8FRz-12" target="2LGqgcCa6hglrMfz8FRz-14">
          <mxGeometry relative="1" as="geometry" />
        </mxCell>
        <mxCell id="2LGqgcCa6hglrMfz8FRz-12" value="应用配置" style="rounded=0;whiteSpace=wrap;html=1;" vertex="1" parent="1">
          <mxGeometry x="560" y="110" width="120" height="60" as="geometry" />
        </mxCell>
        <mxCell id="2LGqgcCa6hglrMfz8FRz-13" value="" style="edgeStyle=orthogonalEdgeStyle;rounded=0;orthogonalLoop=1;jettySize=auto;html=1;" edge="1" parent="1" source="2LGqgcCa6hglrMfz8FRz-14" target="2LGqgcCa6hglrMfz8FRz-16">
          <mxGeometry relative="1" as="geometry" />
        </mxCell>
        <mxCell id="2LGqgcCa6hglrMfz8FRz-14" value="数据源配置" style="rounded=0;whiteSpace=wrap;html=1;" vertex="1" parent="1">
          <mxGeometry x="560" y="250" width="120" height="60" as="geometry" />
        </mxCell>
        <mxCell id="2LGqgcCa6hglrMfz8FRz-15" value="" style="edgeStyle=orthogonalEdgeStyle;rounded=0;orthogonalLoop=1;jettySize=auto;html=1;" edge="1" parent="1" source="2LGqgcCa6hglrMfz8FRz-16" target="2LGqgcCa6hglrMfz8FRz-18">
          <mxGeometry relative="1" as="geometry" />
        </mxCell>
        <mxCell id="2LGqgcCa6hglrMfz8FRz-16" value="索引结构配置" style="rounded=0;whiteSpace=wrap;html=1;" vertex="1" parent="1">
          <mxGeometry x="560" y="390" width="120" height="60" as="geometry" />
        </mxCell>
        <mxCell id="2LGqgcCa6hglrMfz8FRz-17" value="" style="edgeStyle=orthogonalEdgeStyle;rounded=0;orthogonalLoop=1;jettySize=auto;html=1;" edge="1" parent="1" source="2LGqgcCa6hglrMfz8FRz-18" target="2LGqgcCa6hglrMfz8FRz-19">
          <mxGeometry relative="1" as="geometry" />
        </mxCell>
        <mxCell id="2LGqgcCa6hglrMfz8FRz-18" value="监控配置" style="rounded=0;whiteSpace=wrap;html=1;" vertex="1" parent="1">
          <mxGeometry x="560" y="530" width="120" height="60" as="geometry" />
        </mxCell>
        <mxCell id="2LGqgcCa6hglrMfz8FRz-19" value="高级配置" style="rounded=0;whiteSpace=wrap;html=1;" vertex="1" parent="1">
          <mxGeometry x="560" y="670" width="120" height="60" as="geometry" />
        </mxCell>
      </root>
    </mxGraphModel>
  </diagram>
</mxfile>
